M48
METRIC,LZ,000.000
;FILE_FORMAT=3:3
;TYPE=PLATED
;Layer: Drill PTH
;EasyEDA v6.4.19.4, 2021-06-14T19:23:21+03:00
;c287602e535a46618d334795f056a235,b3268d441ec746f5bebdd9f8aa6dfed9,10
;Gerber Generator version 0.2
;Holesize 1 = 0.310 mm
T01C0.310
;Holesize 2 = 0.701 mm
T02C0.701
;Holesize 3 = 0.889 mm
T03C0.889
;Holesize 4 = 0.915 mm
T04C0.915
;Holesize 5 = 1.000 mm
T05C1.000
;Holesize 6 = 1.101 mm
T06C1.101
;Holesize 7 = 1.200 mm
T07C1.200
;Holesize 8 = 1.701 mm
T08C1.701
;Holesize 9 = 3.556 mm
T09C3.556
%
G05
G90
T01
X029482Y-007366
X058278Y-040404
X032570Y-022382
X032413Y-013317
X045428Y-016002
X055215Y-025794
X048555Y-010386
X051704Y-022606
X048560Y-012700
X049144Y-014384
X061369Y-020775
X062255Y-019017
X048570Y-020574
X043533Y-013175
X025400Y-008539
X029418Y-017729
X029403Y-016045
X029413Y-014381
T02
X059873Y-018873
X059873Y-020143
X059873Y-021413
X022127Y-043127
X022127Y-041857
X022127Y-040587
T03
X008890Y-032004
X008890Y-029464
X068001Y-032461
X068001Y-035001
X068001Y-037541
X068001Y-040081
X065786Y-004064
X063246Y-004064
X060706Y-004064
X068001Y-051539
X068001Y-048999
X068001Y-046459
X019050Y-006604
X016510Y-006604
X013970Y-006604
T04
X035630Y-040742
X038184Y-040742
X040702Y-040742
X043221Y-040742
X045740Y-040742
X048271Y-040742
X035630Y-055985
X038184Y-055985
X040702Y-055985
X043221Y-055985
X045740Y-055985
X048271Y-055985
X035630Y-053445
X035630Y-050904
X035630Y-048364
X035630Y-045823
X035630Y-043283
X048271Y-053445
X048271Y-050904
X048271Y-048364
X048271Y-045823
X048271Y-043283
X029001Y-056001
X028939Y-050992
X056009Y-051009
X056009Y-046017
X055945Y-041025
T05
X020320Y-027940
X020320Y-030480
X027940Y-030480
X027940Y-027940
X063081Y-031999
X063080Y-029460
X055460Y-029460
X055460Y-032000
T06
X016764Y-033020
X016764Y-025400
X068000Y-021000
X068000Y-028620
X050292Y-018542
X050292Y-026162
X068001Y-009921
X068000Y-012460
X068000Y-015000
X068000Y-017540
X018002Y-056002
X015462Y-056001
X052070Y-003810
X054610Y-003810
T07
X012159Y-040038
X012159Y-047658
T08
X009144Y-015494
X009144Y-020493
T09
X005080Y-005080
X005000Y-056000
X073660Y-055880
X073660Y-005080
M30
