G04 Layer: TopSilkLayer*
G04 EasyEDA v6.4.19.4, 2021-06-14T19:23:21+03:00*
G04 c287602e535a46618d334795f056a235,b3268d441ec746f5bebdd9f8aa6dfed9,10*
G04 Gerber Generator version 0.2*
G04 Scale: 100 percent, Rotated: No, Reflected: No *
G04 Dimensions in millimeters *
G04 leading zeros omitted , absolute positions ,4 integer and 5 decimal *
%FSLAX45Y45*%
%MOMM*%

%ADD10C,0.2540*%
%ADD31C,0.2286*%
%ADD32C,0.1999*%
%ADD33C,0.2581*%
%ADD34C,0.2032*%
%ADD35C,0.2030*%
%ADD36C,0.1778*%
%ADD37C,0.1270*%

%LPD*%
D34*
X7282680Y-5265000D02*
G01*
X7282680Y-5142318D01*
X7221463Y-4896954D02*
G01*
X7207750Y-4910670D01*
X7200892Y-4930990D01*
X7200892Y-4958168D01*
X7207750Y-4978742D01*
X7221463Y-4992458D01*
X7234928Y-4992458D01*
X7248644Y-4985600D01*
X7255502Y-4978742D01*
X7262360Y-4965026D01*
X7275822Y-4924132D01*
X7282680Y-4910670D01*
X7289538Y-4903812D01*
X7303254Y-4896954D01*
X7323574Y-4896954D01*
X7337290Y-4910670D01*
X7344145Y-4930990D01*
X7344145Y-4958168D01*
X7337290Y-4978742D01*
X7323574Y-4992458D01*
X7221463Y-4685626D02*
G01*
X7344145Y-4685626D01*
X7282680Y-4746840D02*
G01*
X7282680Y-4624158D01*
X7200910Y-4072046D02*
G01*
X7344166Y-4072046D01*
X7200910Y-4072046D02*
G01*
X7200910Y-4010832D01*
X7207768Y-3990258D01*
X7214626Y-3983400D01*
X7228088Y-3976542D01*
X7248662Y-3976542D01*
X7262124Y-3983400D01*
X7268982Y-3990258D01*
X7275840Y-4010832D01*
X7275840Y-4072046D01*
X7200910Y-3826682D02*
G01*
X7344166Y-3826682D01*
X7200910Y-3826682D02*
G01*
X7200910Y-3765214D01*
X7207768Y-3744894D01*
X7214626Y-3738036D01*
X7228088Y-3731178D01*
X7248662Y-3731178D01*
X7262124Y-3738036D01*
X7268982Y-3744894D01*
X7275840Y-3765214D01*
X7275840Y-3826682D01*
X7221230Y-3485814D02*
G01*
X7207768Y-3499276D01*
X7200910Y-3519850D01*
X7200910Y-3547028D01*
X7207768Y-3567602D01*
X7221230Y-3581064D01*
X7234946Y-3581064D01*
X7248662Y-3574460D01*
X7255520Y-3567602D01*
X7262124Y-3553886D01*
X7275840Y-3512992D01*
X7282698Y-3499276D01*
X7289556Y-3492672D01*
X7303272Y-3485814D01*
X7323592Y-3485814D01*
X7337308Y-3499276D01*
X7344166Y-3519850D01*
X7344166Y-3547028D01*
X7337308Y-3567602D01*
X7323592Y-3581064D01*
X7221230Y-3274486D02*
G01*
X7344166Y-3274486D01*
X7282698Y-3335700D02*
G01*
X7282698Y-3213018D01*
X7288994Y-1843900D02*
G01*
X7288994Y-1721218D01*
X7227526Y-1509890D02*
G01*
X7350208Y-1509890D01*
X7288994Y-1571358D02*
G01*
X7288994Y-1448422D01*
X7207206Y-1298562D02*
G01*
X7350208Y-1298562D01*
X7207206Y-1298562D02*
G01*
X7207206Y-1250810D01*
X7214064Y-1230236D01*
X7227526Y-1216774D01*
X7241242Y-1209916D01*
X7261562Y-1203058D01*
X7295852Y-1203058D01*
X7316172Y-1209916D01*
X7329888Y-1216774D01*
X7343604Y-1230236D01*
X7350208Y-1250810D01*
X7350208Y-1298562D01*
X7241242Y-950836D02*
G01*
X7227526Y-957694D01*
X7214064Y-971156D01*
X7207206Y-984872D01*
X7207206Y-1012050D01*
X7214064Y-1025766D01*
X7227526Y-1039482D01*
X7241242Y-1046340D01*
X7261562Y-1053198D01*
X7295852Y-1053198D01*
X7316172Y-1046340D01*
X7329888Y-1039482D01*
X7343604Y-1025766D01*
X7350208Y-1012050D01*
X7350208Y-984872D01*
X7343604Y-971156D01*
X7329888Y-957694D01*
X7316172Y-950836D01*
X6083045Y-585978D02*
G01*
X6083045Y-729234D01*
X6035293Y-585978D02*
G01*
X6130797Y-585978D01*
X6175756Y-633729D02*
G01*
X6250940Y-729234D01*
X6250940Y-633729D02*
G01*
X6175756Y-729234D01*
X6295897Y-585978D02*
G01*
X6295897Y-729234D01*
X6295897Y-585978D02*
G01*
X6357111Y-585978D01*
X6377686Y-592836D01*
X6384543Y-599694D01*
X6391402Y-613155D01*
X6391402Y-626871D01*
X6384543Y-640587D01*
X6377686Y-647445D01*
X6357111Y-654304D01*
X6295897Y-654304D01*
X6343650Y-654304D02*
G01*
X6391402Y-729234D01*
X6436359Y-633729D02*
G01*
X6511290Y-729234D01*
X6511290Y-633729D02*
G01*
X6436359Y-729234D01*
X6556247Y-667765D02*
G01*
X6678929Y-667765D01*
X1397000Y-921257D02*
G01*
X1397000Y-1043939D01*
X1335531Y-982726D02*
G01*
X1458213Y-982726D01*
X1703831Y-921257D02*
G01*
X1690115Y-907542D01*
X1669542Y-900937D01*
X1642363Y-900937D01*
X1621789Y-907542D01*
X1608328Y-921257D01*
X1608328Y-934973D01*
X1615186Y-948689D01*
X1621789Y-955294D01*
X1635505Y-962152D01*
X1676400Y-975868D01*
X1690115Y-982726D01*
X1696973Y-989584D01*
X1703831Y-1003045D01*
X1703831Y-1023620D01*
X1690115Y-1037081D01*
X1669542Y-1043939D01*
X1642363Y-1043939D01*
X1621789Y-1037081D01*
X1608328Y-1023620D01*
X1853692Y-982726D02*
G01*
X1976373Y-982726D01*
X1497629Y-2024931D02*
G01*
X1497629Y-1902249D01*
X1436415Y-1585765D02*
G01*
X1559097Y-1585765D01*
X1497629Y-1647233D02*
G01*
X1497629Y-1524551D01*
X3145360Y-5696165D02*
G01*
X3145360Y-5502203D01*
X3145360Y-5502203D02*
G01*
X3034525Y-5502203D01*
X3187771Y-5200721D02*
G01*
X3187771Y-5006759D01*
X3187771Y-5200721D02*
G01*
X3058462Y-5006759D01*
X3058462Y-5200721D02*
G01*
X3058462Y-5006759D01*
X5447098Y-5081696D02*
G01*
X5280842Y-5081696D01*
X5520936Y-4859748D02*
G01*
X5520936Y-4693493D01*
X5604062Y-4776622D02*
G01*
X5437807Y-4776622D01*
X5376847Y-4887457D02*
G01*
X5302956Y-4693493D01*
X5229064Y-4887457D02*
G01*
X5302956Y-4693493D01*
X5168104Y-4850511D02*
G01*
X5149634Y-4859748D01*
X5121925Y-4887457D01*
X5121925Y-4693493D01*
X5389646Y-4192137D02*
G01*
X5389646Y-4025882D01*
X5472775Y-4109008D02*
G01*
X5306519Y-4109008D01*
D36*
X2797195Y-157479D02*
G01*
X2797195Y-235204D01*
X2802275Y-250952D01*
X2812689Y-261365D01*
X2828437Y-266445D01*
X2838851Y-266445D01*
X2854345Y-261365D01*
X2864759Y-250952D01*
X2869839Y-235204D01*
X2869839Y-157479D01*
X2904129Y-178054D02*
G01*
X2914543Y-172973D01*
X2930291Y-157479D01*
X2930291Y-266445D01*
D34*
X3458972Y-1447545D02*
G01*
X3458972Y-1641347D01*
X3458972Y-1447545D02*
G01*
X3578859Y-1447545D01*
X3458972Y-1539747D02*
G01*
X3532631Y-1539747D01*
X3458972Y-1641347D02*
G01*
X3578859Y-1641347D01*
X3769106Y-1475231D02*
G01*
X3750818Y-1456689D01*
X3723131Y-1447545D01*
X3686047Y-1447545D01*
X3658361Y-1456689D01*
X3639820Y-1475231D01*
X3639820Y-1493520D01*
X3649218Y-1512062D01*
X3658361Y-1521205D01*
X3676904Y-1530604D01*
X3732275Y-1549145D01*
X3750818Y-1558289D01*
X3759961Y-1567434D01*
X3769106Y-1585976D01*
X3769106Y-1613662D01*
X3750818Y-1632204D01*
X3723131Y-1641347D01*
X3686047Y-1641347D01*
X3658361Y-1632204D01*
X3639820Y-1613662D01*
X3830065Y-1447545D02*
G01*
X3830065Y-1641347D01*
X3830065Y-1447545D02*
G01*
X3913377Y-1447545D01*
X3941063Y-1456689D01*
X3950208Y-1465834D01*
X3959352Y-1484376D01*
X3959352Y-1512062D01*
X3950208Y-1530604D01*
X3941063Y-1539747D01*
X3913377Y-1549145D01*
X3830065Y-1549145D01*
X4020311Y-1484376D02*
G01*
X4038854Y-1475231D01*
X4066540Y-1447545D01*
X4066540Y-1641347D01*
X4136897Y-1493520D02*
G01*
X4136897Y-1484376D01*
X4146041Y-1465834D01*
X4155186Y-1456689D01*
X4173727Y-1447545D01*
X4210811Y-1447545D01*
X4229100Y-1456689D01*
X4238497Y-1465834D01*
X4247641Y-1484376D01*
X4247641Y-1502918D01*
X4238497Y-1521205D01*
X4219956Y-1549145D01*
X4127500Y-1641347D01*
X4256786Y-1641347D01*
X4317745Y-1447545D02*
G01*
X4317745Y-1641347D01*
X4317745Y-1447545D02*
G01*
X4437888Y-1447545D01*
X4317745Y-1539747D02*
G01*
X4391659Y-1539747D01*
D36*
X2413000Y-2376170D02*
G01*
X2413000Y-2453894D01*
X2418079Y-2469642D01*
X2428494Y-2480055D01*
X2444241Y-2485136D01*
X2454656Y-2485136D01*
X2470150Y-2480055D01*
X2480563Y-2469642D01*
X2485643Y-2453894D01*
X2485643Y-2376170D01*
X2530347Y-2376170D02*
G01*
X2587497Y-2376170D01*
X2556509Y-2417571D01*
X2572004Y-2417571D01*
X2582418Y-2422905D01*
X2587497Y-2427986D01*
X2592831Y-2443479D01*
X2592831Y-2453894D01*
X2587497Y-2469642D01*
X2577084Y-2480055D01*
X2561590Y-2485136D01*
X2546095Y-2485136D01*
X2530347Y-2480055D01*
X2525268Y-2474721D01*
X2519934Y-2464307D01*
X5926988Y-3493363D02*
G01*
X5926988Y-3571087D01*
X5932068Y-3586835D01*
X5942482Y-3597249D01*
X5958230Y-3602329D01*
X5968644Y-3602329D01*
X5984138Y-3597249D01*
X5994552Y-3586835D01*
X5999632Y-3571087D01*
X5999632Y-3493363D01*
X6085992Y-3493363D02*
G01*
X6033922Y-3566007D01*
X6111900Y-3566007D01*
X6085992Y-3493363D02*
G01*
X6085992Y-3602329D01*
X1360170Y-2921000D02*
G01*
X1469136Y-2921000D01*
X1360170Y-2921000D02*
G01*
X1360170Y-2884678D01*
X1365250Y-2868929D01*
X1375663Y-2858770D01*
X1386078Y-2853436D01*
X1401571Y-2848355D01*
X1427479Y-2848355D01*
X1443228Y-2853436D01*
X1453642Y-2858770D01*
X1464055Y-2868929D01*
X1469136Y-2884678D01*
X1469136Y-2921000D01*
X1380744Y-2814065D02*
G01*
X1375663Y-2803652D01*
X1360170Y-2787904D01*
X1469136Y-2787904D01*
X6991756Y-2480995D02*
G01*
X7100722Y-2480995D01*
X6991756Y-2480995D02*
G01*
X6991756Y-2444673D01*
X6996836Y-2428925D01*
X7007250Y-2418765D01*
X7017664Y-2413431D01*
X7033158Y-2408351D01*
X7059066Y-2408351D01*
X7074814Y-2413431D01*
X7085228Y-2418765D01*
X7095642Y-2428925D01*
X7100722Y-2444673D01*
X7100722Y-2480995D01*
X7017664Y-2368727D02*
G01*
X7012330Y-2368727D01*
X7001916Y-2363647D01*
X6996836Y-2358313D01*
X6991756Y-2347899D01*
X6991756Y-2327325D01*
X6996836Y-2316911D01*
X7001916Y-2311577D01*
X7012330Y-2306497D01*
X7022744Y-2306497D01*
X7033158Y-2311577D01*
X7048906Y-2321991D01*
X7100722Y-2374061D01*
X7100722Y-2301163D01*
X5178569Y-2491879D02*
G01*
X5287535Y-2491879D01*
X5178569Y-2491879D02*
G01*
X5178569Y-2455557D01*
X5183649Y-2439809D01*
X5194063Y-2429649D01*
X5204477Y-2424315D01*
X5219971Y-2419235D01*
X5245879Y-2419235D01*
X5261627Y-2424315D01*
X5272041Y-2429649D01*
X5282455Y-2439809D01*
X5287535Y-2455557D01*
X5287535Y-2491879D01*
X5178569Y-2374531D02*
G01*
X5178569Y-2317381D01*
X5219971Y-2348369D01*
X5219971Y-2332875D01*
X5225305Y-2322461D01*
X5230385Y-2317381D01*
X5245879Y-2312047D01*
X5256293Y-2312047D01*
X5272041Y-2317381D01*
X5282455Y-2327795D01*
X5287535Y-2343289D01*
X5287535Y-2358783D01*
X5282455Y-2374531D01*
X5277121Y-2379611D01*
X5266707Y-2384945D01*
X6056629Y-1583766D02*
G01*
X6046215Y-1588846D01*
X6035802Y-1599260D01*
X6030468Y-1609674D01*
X6025388Y-1625168D01*
X6025388Y-1651076D01*
X6030468Y-1666824D01*
X6035802Y-1677238D01*
X6046215Y-1687652D01*
X6056629Y-1692732D01*
X6077458Y-1692732D01*
X6087618Y-1687652D01*
X6098031Y-1677238D01*
X6103365Y-1666824D01*
X6108445Y-1651076D01*
X6108445Y-1625168D01*
X6103365Y-1609674D01*
X6098031Y-1599260D01*
X6087618Y-1588846D01*
X6077458Y-1583766D01*
X6056629Y-1583766D01*
X6072124Y-1671904D02*
G01*
X6103365Y-1703146D01*
X6142736Y-1604340D02*
G01*
X6153150Y-1599260D01*
X6168897Y-1583766D01*
X6168897Y-1692732D01*
X2205837Y-4491761D02*
G01*
X2195423Y-4496841D01*
X2185009Y-4507255D01*
X2179675Y-4517669D01*
X2174595Y-4533163D01*
X2174595Y-4559071D01*
X2179675Y-4574819D01*
X2185009Y-4585233D01*
X2195423Y-4595647D01*
X2205837Y-4600727D01*
X2226665Y-4600727D01*
X2236825Y-4595647D01*
X2247239Y-4585233D01*
X2252573Y-4574819D01*
X2257653Y-4559071D01*
X2257653Y-4533163D01*
X2252573Y-4517669D01*
X2247239Y-4507255D01*
X2236825Y-4496841D01*
X2226665Y-4491761D01*
X2205837Y-4491761D01*
X2221331Y-4579899D02*
G01*
X2252573Y-4611141D01*
X2297277Y-4517669D02*
G01*
X2297277Y-4512335D01*
X2302357Y-4501921D01*
X2307691Y-4496841D01*
X2318105Y-4491761D01*
X2338679Y-4491761D01*
X2349093Y-4496841D01*
X2354427Y-4501921D01*
X2359507Y-4512335D01*
X2359507Y-4522749D01*
X2354427Y-4533163D01*
X2344013Y-4548911D01*
X2291943Y-4600727D01*
X2364841Y-4600727D01*
X844593Y-5073142D02*
G01*
X844593Y-5182107D01*
X844593Y-5073142D02*
G01*
X891329Y-5073142D01*
X906823Y-5078221D01*
X912157Y-5083302D01*
X917237Y-5093715D01*
X917237Y-5104129D01*
X912157Y-5114544D01*
X906823Y-5119878D01*
X891329Y-5124957D01*
X844593Y-5124957D02*
G01*
X891329Y-5124957D01*
X906823Y-5130292D01*
X912157Y-5135371D01*
X917237Y-5145786D01*
X917237Y-5161279D01*
X912157Y-5171694D01*
X906823Y-5177028D01*
X891329Y-5182107D01*
X844593Y-5182107D01*
X951527Y-5073142D02*
G01*
X951527Y-5150865D01*
X956861Y-5166613D01*
X967275Y-5177028D01*
X982769Y-5182107D01*
X993183Y-5182107D01*
X1008677Y-5177028D01*
X1019091Y-5166613D01*
X1024425Y-5150865D01*
X1024425Y-5073142D01*
X1131359Y-5073142D02*
G01*
X1058715Y-5182107D01*
X1058715Y-5073142D02*
G01*
X1131359Y-5073142D01*
X1058715Y-5182107D02*
G01*
X1131359Y-5182107D01*
X1238293Y-5073142D02*
G01*
X1165649Y-5182107D01*
X1165649Y-5073142D02*
G01*
X1238293Y-5073142D01*
X1165649Y-5182107D02*
G01*
X1238293Y-5182107D01*
X1272583Y-5073142D02*
G01*
X1272583Y-5182107D01*
X1272583Y-5073142D02*
G01*
X1340147Y-5073142D01*
X1272583Y-5124957D02*
G01*
X1314239Y-5124957D01*
X1272583Y-5182107D02*
G01*
X1340147Y-5182107D01*
X1374437Y-5073142D02*
G01*
X1374437Y-5182107D01*
X1374437Y-5073142D02*
G01*
X1421173Y-5073142D01*
X1436921Y-5078221D01*
X1442001Y-5083302D01*
X1447335Y-5093715D01*
X1447335Y-5104129D01*
X1442001Y-5114544D01*
X1436921Y-5119878D01*
X1421173Y-5124957D01*
X1374437Y-5124957D01*
X1411013Y-5124957D02*
G01*
X1447335Y-5182107D01*
X1481625Y-5093715D02*
G01*
X1492039Y-5088636D01*
X1507533Y-5073142D01*
X1507533Y-5182107D01*
X6407096Y-1399357D02*
G01*
X6516062Y-1399357D01*
X6407096Y-1326713D02*
G01*
X6516062Y-1326713D01*
X6458912Y-1399357D02*
G01*
X6458912Y-1326713D01*
X6427670Y-1292423D02*
G01*
X6422590Y-1282009D01*
X6407096Y-1266261D01*
X6516062Y-1266261D01*
D37*
X7030839Y-1560725D02*
G01*
X7035919Y-1571139D01*
X7046333Y-1581553D01*
X7056747Y-1586887D01*
X7072241Y-1591967D01*
X7098149Y-1591967D01*
X7113897Y-1586887D01*
X7124311Y-1581553D01*
X7134725Y-1571139D01*
X7139805Y-1560725D01*
X7139805Y-1539897D01*
X7134725Y-1529737D01*
X7124311Y-1519323D01*
X7113897Y-1513989D01*
X7098149Y-1508909D01*
X7072241Y-1508909D01*
X7056747Y-1513989D01*
X7046333Y-1519323D01*
X7035919Y-1529737D01*
X7030839Y-1539897D01*
X7030839Y-1560725D01*
X7030839Y-1474619D02*
G01*
X7139805Y-1474619D01*
X7139805Y-1474619D02*
G01*
X7139805Y-1412135D01*
X7030839Y-1377845D02*
G01*
X7139805Y-1377845D01*
X7030839Y-1377845D02*
G01*
X7030839Y-1310281D01*
X7082655Y-1377845D02*
G01*
X7082655Y-1336443D01*
X7139805Y-1377845D02*
G01*
X7139805Y-1310281D01*
X7030839Y-1275991D02*
G01*
X7139805Y-1275991D01*
X7030839Y-1275991D02*
G01*
X7030839Y-1239669D01*
X7035919Y-1224175D01*
X7046333Y-1213761D01*
X7056747Y-1208427D01*
X7072241Y-1203347D01*
X7098149Y-1203347D01*
X7113897Y-1208427D01*
X7124311Y-1213761D01*
X7134725Y-1224175D01*
X7139805Y-1239669D01*
X7139805Y-1275991D01*
D36*
X5480989Y-1581277D02*
G01*
X5480989Y-1690243D01*
X5480989Y-1581277D02*
G01*
X5527725Y-1581277D01*
X5543219Y-1586356D01*
X5548553Y-1591437D01*
X5553633Y-1601851D01*
X5553633Y-1612264D01*
X5548553Y-1622679D01*
X5543219Y-1628012D01*
X5527725Y-1633093D01*
X5480989Y-1633093D01*
X5517311Y-1633093D02*
G01*
X5553633Y-1690243D01*
X5614085Y-1581277D02*
G01*
X5598337Y-1586356D01*
X5593257Y-1596770D01*
X5593257Y-1607185D01*
X5598337Y-1617598D01*
X5608751Y-1622679D01*
X5629579Y-1628012D01*
X5645073Y-1633093D01*
X5655487Y-1643506D01*
X5660821Y-1653920D01*
X5660821Y-1669414D01*
X5655487Y-1679829D01*
X5650407Y-1685162D01*
X5634659Y-1690243D01*
X5614085Y-1690243D01*
X5598337Y-1685162D01*
X5593257Y-1679829D01*
X5587923Y-1669414D01*
X5587923Y-1653920D01*
X5593257Y-1643506D01*
X5603671Y-1633093D01*
X5619165Y-1628012D01*
X5639993Y-1622679D01*
X5650407Y-1617598D01*
X5655487Y-1607185D01*
X5655487Y-1596770D01*
X5650407Y-1586356D01*
X5634659Y-1581277D01*
X5614085Y-1581277D01*
X2413000Y-699770D02*
G01*
X2413000Y-808736D01*
X2413000Y-699770D02*
G01*
X2459736Y-699770D01*
X2475229Y-704850D01*
X2480563Y-709929D01*
X2485643Y-720344D01*
X2485643Y-730757D01*
X2480563Y-741171D01*
X2475229Y-746505D01*
X2459736Y-751586D01*
X2413000Y-751586D01*
X2449322Y-751586D02*
G01*
X2485643Y-808736D01*
X2519934Y-720344D02*
G01*
X2530347Y-715263D01*
X2546095Y-699770D01*
X2546095Y-808736D01*
X2653029Y-699770D02*
G01*
X2600959Y-808736D01*
X2580386Y-699770D02*
G01*
X2653029Y-699770D01*
X1979269Y-5587441D02*
G01*
X2088235Y-5587441D01*
X1979269Y-5514797D02*
G01*
X2088235Y-5514797D01*
X2031085Y-5587441D02*
G01*
X2031085Y-5514797D01*
X1979269Y-5470093D02*
G01*
X1979269Y-5412943D01*
X2020671Y-5443931D01*
X2020671Y-5428437D01*
X2026005Y-5418023D01*
X2031085Y-5412943D01*
X2046579Y-5407609D01*
X2056993Y-5407609D01*
X2072741Y-5412943D01*
X2083155Y-5423357D01*
X2088235Y-5438851D01*
X2088235Y-5454345D01*
X2083155Y-5470093D01*
X2077821Y-5475173D01*
X2067407Y-5480507D01*
D37*
X1447744Y-5891192D02*
G01*
X1447744Y-5885858D01*
X1453078Y-5875444D01*
X1458158Y-5870364D01*
X1468572Y-5865284D01*
X1489400Y-5865284D01*
X1499814Y-5870364D01*
X1504894Y-5875444D01*
X1510228Y-5885858D01*
X1510228Y-5896272D01*
X1504894Y-5906686D01*
X1494734Y-5922434D01*
X1442664Y-5974250D01*
X1515308Y-5974250D01*
X1554932Y-5891192D02*
G01*
X1554932Y-5885858D01*
X1560012Y-5875444D01*
X1565346Y-5870364D01*
X1575760Y-5865284D01*
X1596334Y-5865284D01*
X1606748Y-5870364D01*
X1612082Y-5875444D01*
X1617162Y-5885858D01*
X1617162Y-5896272D01*
X1612082Y-5906686D01*
X1601668Y-5922434D01*
X1549598Y-5974250D01*
X1622496Y-5974250D01*
X1687774Y-5865284D02*
G01*
X1672280Y-5870364D01*
X1661866Y-5885858D01*
X1656786Y-5912020D01*
X1656786Y-5927514D01*
X1661866Y-5953422D01*
X1672280Y-5969170D01*
X1687774Y-5974250D01*
X1698188Y-5974250D01*
X1713936Y-5969170D01*
X1724350Y-5953422D01*
X1729430Y-5927514D01*
X1729430Y-5912020D01*
X1724350Y-5885858D01*
X1713936Y-5870364D01*
X1698188Y-5865284D01*
X1687774Y-5865284D01*
X1763720Y-5865284D02*
G01*
X1805376Y-5974250D01*
X1846778Y-5865284D02*
G01*
X1805376Y-5974250D01*
D36*
X1152875Y-3147077D02*
G01*
X1261841Y-3147077D01*
X1152875Y-3147077D02*
G01*
X1152875Y-3100341D01*
X1157955Y-3084847D01*
X1163035Y-3079513D01*
X1173449Y-3074433D01*
X1189197Y-3074433D01*
X1199611Y-3079513D01*
X1204691Y-3084847D01*
X1210025Y-3100341D01*
X1210025Y-3147077D01*
X1178783Y-3034809D02*
G01*
X1173449Y-3034809D01*
X1163035Y-3029729D01*
X1157955Y-3024395D01*
X1152875Y-3013981D01*
X1152875Y-2993407D01*
X1157955Y-2982993D01*
X1163035Y-2977659D01*
X1173449Y-2972579D01*
X1183863Y-2972579D01*
X1194277Y-2977659D01*
X1210025Y-2988073D01*
X1261841Y-3040143D01*
X1261841Y-2967245D01*
D37*
X340232Y-3226523D02*
G01*
X449453Y-3226523D01*
X340232Y-3226523D02*
G01*
X340232Y-3179787D01*
X345312Y-3164293D01*
X350646Y-3159213D01*
X361061Y-3153879D01*
X376554Y-3153879D01*
X386969Y-3159213D01*
X392303Y-3164293D01*
X397382Y-3179787D01*
X397382Y-3226523D01*
X340232Y-3119589D02*
G01*
X418211Y-3119589D01*
X433704Y-3114509D01*
X444119Y-3104095D01*
X449453Y-3088347D01*
X449453Y-3077933D01*
X444119Y-3062439D01*
X433704Y-3052025D01*
X418211Y-3046945D01*
X340232Y-3046945D01*
X340232Y-3012655D02*
G01*
X449453Y-3012655D01*
X340232Y-3012655D02*
G01*
X449453Y-2970999D01*
X340232Y-2929343D02*
G01*
X449453Y-2970999D01*
X340232Y-2929343D02*
G01*
X449453Y-2929343D01*
X340232Y-2895053D02*
G01*
X449453Y-2895053D01*
X340232Y-2895053D02*
G01*
X340232Y-2848317D01*
X345312Y-2832823D01*
X350646Y-2827743D01*
X361061Y-2822409D01*
X376554Y-2822409D01*
X386969Y-2827743D01*
X392303Y-2832823D01*
X397382Y-2848317D01*
X397382Y-2895053D01*
D36*
X6470101Y-3726682D02*
G01*
X6579067Y-3726682D01*
X6470101Y-3726682D02*
G01*
X6470101Y-3679946D01*
X6475181Y-3664452D01*
X6480261Y-3659118D01*
X6490675Y-3654038D01*
X6506423Y-3654038D01*
X6516837Y-3659118D01*
X6521917Y-3664452D01*
X6527251Y-3679946D01*
X6527251Y-3726682D01*
X6470101Y-3609334D02*
G01*
X6470101Y-3552184D01*
X6511503Y-3583172D01*
X6511503Y-3567678D01*
X6516837Y-3557264D01*
X6521917Y-3552184D01*
X6537411Y-3546850D01*
X6547825Y-3546850D01*
X6563573Y-3552184D01*
X6573987Y-3562598D01*
X6579067Y-3578092D01*
X6579067Y-3593586D01*
X6573987Y-3609334D01*
X6568653Y-3614414D01*
X6558239Y-3619748D01*
D37*
X6994921Y-4157393D02*
G01*
X7103887Y-4157393D01*
X6994921Y-4084495D02*
G01*
X7103887Y-4084495D01*
X7046737Y-4157393D02*
G01*
X7046737Y-4084495D01*
X6994921Y-4050205D02*
G01*
X7103887Y-4050205D01*
X6994921Y-4050205D02*
G01*
X6994921Y-3982641D01*
X7046737Y-4050205D02*
G01*
X7046737Y-4008803D01*
X7103887Y-4050205D02*
G01*
X7103887Y-3982641D01*
X6994921Y-3906949D02*
G01*
X7103887Y-3948348D01*
X6994921Y-3906949D02*
G01*
X7103887Y-3865293D01*
X7067565Y-3932857D02*
G01*
X7067565Y-3881041D01*
X6994921Y-3794681D02*
G01*
X7103887Y-3794681D01*
X6994921Y-3831003D02*
G01*
X6994921Y-3758356D01*
X6994921Y-3724069D02*
G01*
X7103887Y-3724069D01*
X6994921Y-3724069D02*
G01*
X6994921Y-3656505D01*
X7046737Y-3724069D02*
G01*
X7046737Y-3682413D01*
X7103887Y-3724069D02*
G01*
X7103887Y-3656505D01*
X6994921Y-3622215D02*
G01*
X7103887Y-3622215D01*
X6994921Y-3622215D02*
G01*
X6994921Y-3575479D01*
X7000001Y-3559731D01*
X7005335Y-3554648D01*
X7015749Y-3549571D01*
X7026163Y-3549571D01*
X7036577Y-3554648D01*
X7041657Y-3559731D01*
X7046737Y-3575479D01*
X7046737Y-3622215D01*
X7046737Y-3585893D02*
G01*
X7103887Y-3549571D01*
X6974093Y-3421555D02*
G01*
X7140463Y-3515281D01*
X6994921Y-3387265D02*
G01*
X7103887Y-3387265D01*
X6994921Y-3387265D02*
G01*
X6994921Y-3340529D01*
X7000001Y-3325035D01*
X7005335Y-3319698D01*
X7015749Y-3314621D01*
X7031243Y-3314621D01*
X7041657Y-3319698D01*
X7046737Y-3325035D01*
X7052071Y-3340529D01*
X7052071Y-3387265D01*
X6994921Y-3280331D02*
G01*
X7103887Y-3280331D01*
X6994921Y-3280331D02*
G01*
X6994921Y-3233595D01*
X7000001Y-3218098D01*
X7005335Y-3212764D01*
X7015749Y-3207687D01*
X7026163Y-3207687D01*
X7036577Y-3212764D01*
X7041657Y-3218098D01*
X7046737Y-3233595D01*
X7046737Y-3280331D01*
X7046737Y-3244006D02*
G01*
X7103887Y-3207687D01*
X6994921Y-3173397D02*
G01*
X7103887Y-3173397D01*
X6994921Y-3173397D02*
G01*
X6994921Y-3105830D01*
X7046737Y-3173397D02*
G01*
X7046737Y-3131741D01*
X7103887Y-3173397D02*
G01*
X7103887Y-3105830D01*
X7010415Y-2998645D02*
G01*
X7000001Y-3009056D01*
X6994921Y-3024807D01*
X6994921Y-3045381D01*
X7000001Y-3061129D01*
X7010415Y-3071543D01*
X7020829Y-3071543D01*
X7031243Y-3066206D01*
X7036577Y-3061129D01*
X7041657Y-3050715D01*
X7052071Y-3019473D01*
X7057151Y-3009056D01*
X7062485Y-3003979D01*
X7072899Y-2998645D01*
X7088393Y-2998645D01*
X7098807Y-3009056D01*
X7103887Y-3024807D01*
X7103887Y-3045381D01*
X7098807Y-3061129D01*
X7088393Y-3071543D01*
X7010415Y-2891711D02*
G01*
X7000001Y-2902122D01*
X6994921Y-2917619D01*
X6994921Y-2938447D01*
X7000001Y-2953941D01*
X7010415Y-2964355D01*
X7020829Y-2964355D01*
X7031243Y-2959272D01*
X7036577Y-2953941D01*
X7041657Y-2943781D01*
X7052071Y-2912539D01*
X7057151Y-2902122D01*
X7062485Y-2896791D01*
X7072899Y-2891711D01*
X7088393Y-2891711D01*
X7098807Y-2902122D01*
X7103887Y-2917619D01*
X7103887Y-2938447D01*
X7098807Y-2953941D01*
X7088393Y-2964355D01*
D36*
X856777Y-1153650D02*
G01*
X965743Y-1153650D01*
X856777Y-1153650D02*
G01*
X856777Y-1106914D01*
X861857Y-1091420D01*
X866937Y-1086086D01*
X877351Y-1081006D01*
X893099Y-1081006D01*
X903513Y-1086086D01*
X908593Y-1091420D01*
X913927Y-1106914D01*
X913927Y-1153650D01*
X877351Y-1046716D02*
G01*
X872271Y-1036302D01*
X856777Y-1020554D01*
X965743Y-1020554D01*
D37*
X352836Y-1962924D02*
G01*
X461802Y-1962924D01*
X352836Y-1999246D02*
G01*
X352836Y-1926602D01*
X352836Y-1892312D02*
G01*
X461802Y-1892312D01*
X352836Y-1892312D02*
G01*
X352836Y-1824748D01*
X404652Y-1892312D02*
G01*
X404652Y-1850656D01*
X461802Y-1892312D02*
G01*
X461802Y-1824748D01*
X352836Y-1790458D02*
G01*
X461802Y-1790458D01*
X352836Y-1790458D02*
G01*
X461802Y-1748802D01*
X352836Y-1707400D02*
G01*
X461802Y-1748802D01*
X352836Y-1707400D02*
G01*
X461802Y-1707400D01*
X352836Y-1673110D02*
G01*
X461802Y-1673110D01*
X352836Y-1673110D02*
G01*
X352836Y-1626120D01*
X357916Y-1610626D01*
X363250Y-1605546D01*
X373664Y-1600212D01*
X389158Y-1600212D01*
X399572Y-1605546D01*
X404652Y-1610626D01*
X409986Y-1626120D01*
X409986Y-1673110D01*
D36*
X2760832Y-2567724D02*
G01*
X2651866Y-2567724D01*
X2760832Y-2567724D02*
G01*
X2760832Y-2614460D01*
X2755752Y-2629954D01*
X2750672Y-2635288D01*
X2740258Y-2640368D01*
X2729844Y-2640368D01*
X2719430Y-2635288D01*
X2714096Y-2629954D01*
X2709016Y-2614460D01*
X2709016Y-2567724D01*
X2709016Y-2604046D02*
G01*
X2651866Y-2640368D01*
X2760832Y-2685072D02*
G01*
X2760832Y-2742222D01*
X2719430Y-2711234D01*
X2719430Y-2726728D01*
X2714096Y-2737142D01*
X2709016Y-2742222D01*
X2693522Y-2747556D01*
X2683108Y-2747556D01*
X2667360Y-2742222D01*
X2656946Y-2731808D01*
X2651866Y-2716314D01*
X2651866Y-2700820D01*
X2656946Y-2685072D01*
X2662280Y-2679992D01*
X2672694Y-2674658D01*
X6772534Y-352785D02*
G01*
X6772534Y-461751D01*
X6772534Y-352785D02*
G01*
X6819270Y-352785D01*
X6834764Y-357865D01*
X6840098Y-362945D01*
X6845178Y-373359D01*
X6845178Y-389107D01*
X6840098Y-399521D01*
X6834764Y-404601D01*
X6819270Y-409935D01*
X6772534Y-409935D01*
X6931538Y-352785D02*
G01*
X6879468Y-425429D01*
X6957446Y-425429D01*
X6931538Y-352785D02*
G01*
X6931538Y-461751D01*
D37*
X5938011Y-99313D02*
G01*
X5927597Y-88900D01*
X5912104Y-83820D01*
X5891275Y-83820D01*
X5875781Y-88900D01*
X5865368Y-99313D01*
X5865368Y-109728D01*
X5870447Y-120142D01*
X5875781Y-125221D01*
X5886195Y-130555D01*
X5917184Y-140970D01*
X5927597Y-146050D01*
X5932931Y-151129D01*
X5938011Y-161544D01*
X5938011Y-177292D01*
X5927597Y-187705D01*
X5912104Y-192786D01*
X5891275Y-192786D01*
X5875781Y-187705D01*
X5865368Y-177292D01*
X5972302Y-83820D02*
G01*
X5998209Y-192786D01*
X6024372Y-83820D02*
G01*
X5998209Y-192786D01*
X6024372Y-83820D02*
G01*
X6050279Y-192786D01*
X6076188Y-83820D02*
G01*
X6050279Y-192786D01*
X6110477Y-83820D02*
G01*
X6110477Y-192786D01*
X6181090Y-83820D02*
G01*
X6181090Y-192786D01*
X6144768Y-83820D02*
G01*
X6217665Y-83820D01*
X6329679Y-109728D02*
G01*
X6324600Y-99313D01*
X6314186Y-88900D01*
X6303772Y-83820D01*
X6282943Y-83820D01*
X6272529Y-88900D01*
X6262115Y-99313D01*
X6257036Y-109728D01*
X6251956Y-125221D01*
X6251956Y-151129D01*
X6257036Y-166878D01*
X6262115Y-177292D01*
X6272529Y-187705D01*
X6282943Y-192786D01*
X6303772Y-192786D01*
X6314186Y-187705D01*
X6324600Y-177292D01*
X6329679Y-166878D01*
X6363970Y-83820D02*
G01*
X6363970Y-192786D01*
X6436868Y-83820D02*
G01*
X6436868Y-192786D01*
X6363970Y-135636D02*
G01*
X6436868Y-135636D01*
X6564629Y-62992D02*
G01*
X6471158Y-229107D01*
X6671563Y-99313D02*
G01*
X6661150Y-88900D01*
X6645656Y-83820D01*
X6624827Y-83820D01*
X6609334Y-88900D01*
X6598920Y-99313D01*
X6598920Y-109728D01*
X6604000Y-120142D01*
X6609334Y-125221D01*
X6619747Y-130555D01*
X6650736Y-140970D01*
X6661150Y-146050D01*
X6666484Y-151129D01*
X6671563Y-161544D01*
X6671563Y-177292D01*
X6661150Y-187705D01*
X6645656Y-192786D01*
X6624827Y-192786D01*
X6609334Y-187705D01*
X6598920Y-177292D01*
X6705854Y-83820D02*
G01*
X6705854Y-192786D01*
X6705854Y-83820D02*
G01*
X6773418Y-83820D01*
X6705854Y-135636D02*
G01*
X6747509Y-135636D01*
X6705854Y-192786D02*
G01*
X6773418Y-192786D01*
X6807708Y-83820D02*
G01*
X6807708Y-192786D01*
X6807708Y-83820D02*
G01*
X6854443Y-83820D01*
X6870191Y-88900D01*
X6875272Y-93979D01*
X6880606Y-104394D01*
X6880606Y-114807D01*
X6875272Y-125221D01*
X6870191Y-130555D01*
X6854443Y-135636D01*
X6807708Y-135636D01*
X6844029Y-135636D02*
G01*
X6880606Y-192786D01*
X6914895Y-83820D02*
G01*
X6914895Y-192786D01*
X6990588Y-83820D02*
G01*
X6949186Y-192786D01*
X6990588Y-83820D02*
G01*
X7032243Y-192786D01*
X6964679Y-156463D02*
G01*
X7016495Y-156463D01*
X7066534Y-83820D02*
G01*
X7066534Y-192786D01*
X7066534Y-192786D02*
G01*
X7128763Y-192786D01*
D36*
X6444896Y-4974148D02*
G01*
X6553862Y-4974148D01*
X6444896Y-4974148D02*
G01*
X6444896Y-4927412D01*
X6449976Y-4911918D01*
X6455056Y-4906584D01*
X6465470Y-4901504D01*
X6481218Y-4901504D01*
X6491632Y-4906584D01*
X6496712Y-4911918D01*
X6502046Y-4927412D01*
X6502046Y-4974148D01*
X6444896Y-4804730D02*
G01*
X6444896Y-4856800D01*
X6491632Y-4861880D01*
X6486298Y-4856800D01*
X6481218Y-4841052D01*
X6481218Y-4825558D01*
X6486298Y-4810064D01*
X6496712Y-4799650D01*
X6512206Y-4794316D01*
X6522620Y-4794316D01*
X6538368Y-4799650D01*
X6548782Y-4810064D01*
X6553862Y-4825558D01*
X6553862Y-4841052D01*
X6548782Y-4856800D01*
X6543448Y-4861880D01*
X6533034Y-4867214D01*
D37*
X6994870Y-5394756D02*
G01*
X7103836Y-5394756D01*
X6994870Y-5394756D02*
G01*
X6994870Y-5327446D01*
X7046686Y-5394756D02*
G01*
X7046686Y-5353354D01*
X6994870Y-5293156D02*
G01*
X7103836Y-5293156D01*
X7103836Y-5293156D02*
G01*
X7103836Y-5230672D01*
X6994870Y-5165140D02*
G01*
X6999950Y-5175554D01*
X7010364Y-5185968D01*
X7020778Y-5191302D01*
X7036272Y-5196382D01*
X7062434Y-5196382D01*
X7077928Y-5191302D01*
X7088342Y-5185968D01*
X7098756Y-5175554D01*
X7103836Y-5165140D01*
X7103836Y-5144566D01*
X7098756Y-5134152D01*
X7088342Y-5123738D01*
X7077928Y-5118404D01*
X7062434Y-5113324D01*
X7036272Y-5113324D01*
X7020778Y-5118404D01*
X7010364Y-5123738D01*
X6999950Y-5134152D01*
X6994870Y-5144566D01*
X6994870Y-5165140D01*
X6994870Y-5079034D02*
G01*
X7103836Y-5053126D01*
X6994870Y-5026964D02*
G01*
X7103836Y-5053126D01*
X6994870Y-5026964D02*
G01*
X7103836Y-5001056D01*
X6994870Y-4975148D02*
G01*
X7103836Y-5001056D01*
X6974042Y-4847386D02*
G01*
X7140412Y-4940858D01*
X6994870Y-4813096D02*
G01*
X7103836Y-4813096D01*
X6994870Y-4813096D02*
G01*
X6994870Y-4766106D01*
X6999950Y-4750612D01*
X7005284Y-4745532D01*
X7015698Y-4740198D01*
X7031192Y-4740198D01*
X7041606Y-4745532D01*
X7046686Y-4750612D01*
X7052020Y-4766106D01*
X7052020Y-4813096D01*
X6994870Y-4705908D02*
G01*
X7103836Y-4705908D01*
X6994870Y-4705908D02*
G01*
X6994870Y-4659172D01*
X6999950Y-4643678D01*
X7005284Y-4638344D01*
X7015698Y-4633264D01*
X7026112Y-4633264D01*
X7036272Y-4638344D01*
X7041606Y-4643678D01*
X7046686Y-4659172D01*
X7046686Y-4705908D01*
X7046686Y-4669586D02*
G01*
X7103836Y-4633264D01*
X6994870Y-4567732D02*
G01*
X6999950Y-4578146D01*
X7010364Y-4588560D01*
X7020778Y-4593640D01*
X7036272Y-4598974D01*
X7062434Y-4598974D01*
X7077928Y-4593640D01*
X7088342Y-4588560D01*
X7098756Y-4578146D01*
X7103836Y-4567732D01*
X7103836Y-4546904D01*
X7098756Y-4536490D01*
X7088342Y-4526076D01*
X7077928Y-4520996D01*
X7062434Y-4515916D01*
X7036272Y-4515916D01*
X7020778Y-4520996D01*
X7010364Y-4526076D01*
X6999950Y-4536490D01*
X6994870Y-4546904D01*
X6994870Y-4567732D01*
X7020778Y-4403648D02*
G01*
X7010364Y-4408728D01*
X6999950Y-4419142D01*
X6994870Y-4429556D01*
X6994870Y-4450384D01*
X6999950Y-4460798D01*
X7010364Y-4471212D01*
X7020778Y-4476292D01*
X7036272Y-4481626D01*
X7062434Y-4481626D01*
X7077928Y-4476292D01*
X7088342Y-4471212D01*
X7098756Y-4460798D01*
X7103836Y-4450384D01*
X7103836Y-4429556D01*
X7098756Y-4419142D01*
X7088342Y-4408728D01*
X7077928Y-4403648D01*
X7062434Y-4403648D01*
X7062434Y-4429556D02*
G01*
X7062434Y-4403648D01*
D36*
X4895070Y-551482D02*
G01*
X5004036Y-551482D01*
X4895070Y-478838D02*
G01*
X5004036Y-478838D01*
X4946886Y-551482D02*
G01*
X4946886Y-478838D01*
X4920978Y-439214D02*
G01*
X4915644Y-439214D01*
X4905230Y-434134D01*
X4900150Y-428800D01*
X4895070Y-418386D01*
X4895070Y-397812D01*
X4900150Y-387398D01*
X4905230Y-382064D01*
X4915644Y-376984D01*
X4926058Y-376984D01*
X4936472Y-382064D01*
X4952220Y-392478D01*
X5004036Y-444548D01*
X5004036Y-371650D01*
D37*
X4838354Y-94531D02*
G01*
X4838354Y-203499D01*
X4838354Y-94531D02*
G01*
X4885090Y-94531D01*
X4900838Y-99613D01*
X4905918Y-104691D01*
X4910998Y-115107D01*
X4910998Y-130855D01*
X4905918Y-141269D01*
X4900838Y-146349D01*
X4885090Y-151681D01*
X4838354Y-151681D01*
X4945288Y-94531D02*
G01*
X4945288Y-203499D01*
X4945288Y-94531D02*
G01*
X4992278Y-94531D01*
X5007772Y-99613D01*
X5012852Y-104691D01*
X5018186Y-115107D01*
X5018186Y-125521D01*
X5012852Y-135933D01*
X5007772Y-141269D01*
X4992278Y-146349D01*
X4945288Y-146349D01*
X4981864Y-146349D02*
G01*
X5018186Y-203499D01*
X5052476Y-94531D02*
G01*
X5052476Y-203499D01*
X5052476Y-94531D02*
G01*
X5120040Y-94531D01*
X5052476Y-146349D02*
G01*
X5093878Y-146349D01*
X5052476Y-203499D02*
G01*
X5120040Y-203499D01*
X5226974Y-110027D02*
G01*
X5216560Y-99613D01*
X5201066Y-94531D01*
X5180238Y-94531D01*
X5164744Y-99613D01*
X5154330Y-110027D01*
X5154330Y-120439D01*
X5159410Y-130855D01*
X5164744Y-135933D01*
X5175158Y-141269D01*
X5206146Y-151681D01*
X5216560Y-156763D01*
X5221894Y-161841D01*
X5226974Y-172257D01*
X5226974Y-188005D01*
X5216560Y-198419D01*
X5201066Y-203499D01*
X5180238Y-203499D01*
X5164744Y-198419D01*
X5154330Y-188005D01*
X5333908Y-110027D02*
G01*
X5323748Y-99613D01*
X5308000Y-94531D01*
X5287172Y-94531D01*
X5271678Y-99613D01*
X5261264Y-110027D01*
X5261264Y-120439D01*
X5266598Y-130855D01*
X5271678Y-135933D01*
X5282092Y-141269D01*
X5313334Y-151681D01*
X5323748Y-156763D01*
X5328828Y-161841D01*
X5333908Y-172257D01*
X5333908Y-188005D01*
X5323748Y-198419D01*
X5308000Y-203499D01*
X5287172Y-203499D01*
X5271678Y-198419D01*
X5261264Y-188005D01*
X5479450Y-94531D02*
G01*
X5469036Y-99613D01*
X5458622Y-110027D01*
X5453542Y-120439D01*
X5448208Y-135933D01*
X5448208Y-161841D01*
X5453542Y-177589D01*
X5458622Y-188005D01*
X5469036Y-198419D01*
X5479450Y-203499D01*
X5500278Y-203499D01*
X5510692Y-198419D01*
X5521106Y-188005D01*
X5526186Y-177589D01*
X5531520Y-161841D01*
X5531520Y-135933D01*
X5526186Y-120439D01*
X5521106Y-110027D01*
X5510692Y-99613D01*
X5500278Y-94531D01*
X5479450Y-94531D01*
X5565810Y-94531D02*
G01*
X5565810Y-203499D01*
X5565810Y-94531D02*
G01*
X5638454Y-203499D01*
X5638454Y-94531D02*
G01*
X5638454Y-203499D01*
D36*
X957600Y-611118D02*
G01*
X957600Y-720084D01*
X957600Y-611118D02*
G01*
X1004336Y-611118D01*
X1019830Y-616198D01*
X1025164Y-621278D01*
X1030244Y-631692D01*
X1030244Y-647440D01*
X1025164Y-657854D01*
X1019830Y-662934D01*
X1004336Y-668268D01*
X957600Y-668268D01*
X1127018Y-626612D02*
G01*
X1121684Y-616198D01*
X1106190Y-611118D01*
X1095776Y-611118D01*
X1080282Y-616198D01*
X1069868Y-631692D01*
X1064534Y-657854D01*
X1064534Y-683762D01*
X1069868Y-704590D01*
X1080282Y-715004D01*
X1095776Y-720084D01*
X1101110Y-720084D01*
X1116604Y-715004D01*
X1127018Y-704590D01*
X1132098Y-688842D01*
X1132098Y-683762D01*
X1127018Y-668268D01*
X1116604Y-657854D01*
X1101110Y-652520D01*
X1095776Y-652520D01*
X1080282Y-657854D01*
X1069868Y-668268D01*
X1064534Y-683762D01*
D37*
X1203197Y-327660D02*
G01*
X1203197Y-436626D01*
X1203197Y-327660D02*
G01*
X1249934Y-327660D01*
X1265681Y-332739D01*
X1270762Y-338073D01*
X1275842Y-348487D01*
X1275842Y-363981D01*
X1270762Y-374395D01*
X1265681Y-379476D01*
X1249934Y-384810D01*
X1203197Y-384810D01*
X1310131Y-327660D02*
G01*
X1310131Y-436626D01*
X1310131Y-327660D02*
G01*
X1357121Y-327660D01*
X1372615Y-332739D01*
X1377695Y-338073D01*
X1383029Y-348487D01*
X1383029Y-358902D01*
X1377695Y-369315D01*
X1372615Y-374395D01*
X1357121Y-379476D01*
X1310131Y-379476D01*
X1346707Y-379476D02*
G01*
X1383029Y-436626D01*
X1417320Y-327660D02*
G01*
X1417320Y-436626D01*
X1417320Y-327660D02*
G01*
X1484884Y-327660D01*
X1417320Y-379476D02*
G01*
X1458721Y-379476D01*
X1417320Y-436626D02*
G01*
X1484884Y-436626D01*
X1591818Y-343154D02*
G01*
X1581404Y-332739D01*
X1565910Y-327660D01*
X1545081Y-327660D01*
X1529587Y-332739D01*
X1519173Y-343154D01*
X1519173Y-353568D01*
X1524254Y-363981D01*
X1529587Y-369315D01*
X1540002Y-374395D01*
X1570989Y-384810D01*
X1581404Y-389889D01*
X1586737Y-395223D01*
X1591818Y-405637D01*
X1591818Y-421131D01*
X1581404Y-431545D01*
X1565910Y-436626D01*
X1545081Y-436626D01*
X1529587Y-431545D01*
X1519173Y-421131D01*
X1698752Y-343154D02*
G01*
X1688592Y-332739D01*
X1672844Y-327660D01*
X1652015Y-327660D01*
X1636521Y-332739D01*
X1626107Y-343154D01*
X1626107Y-353568D01*
X1631442Y-363981D01*
X1636521Y-369315D01*
X1646936Y-374395D01*
X1678178Y-384810D01*
X1688592Y-389889D01*
X1693671Y-395223D01*
X1698752Y-405637D01*
X1698752Y-421131D01*
X1688592Y-431545D01*
X1672844Y-436626D01*
X1652015Y-436626D01*
X1636521Y-431545D01*
X1626107Y-421131D01*
X1733042Y-327660D02*
G01*
X1733042Y-405637D01*
X1738376Y-421131D01*
X1748789Y-431545D01*
X1764284Y-436626D01*
X1774697Y-436626D01*
X1790192Y-431545D01*
X1800605Y-421131D01*
X1805939Y-405637D01*
X1805939Y-327660D01*
X1840229Y-327660D02*
G01*
X1840229Y-436626D01*
X1840229Y-327660D02*
G01*
X1886965Y-327660D01*
X1902460Y-332739D01*
X1907794Y-338073D01*
X1912873Y-348487D01*
X1912873Y-358902D01*
X1907794Y-369315D01*
X1902460Y-374395D01*
X1886965Y-379476D01*
X1840229Y-379476D01*
X1876552Y-379476D02*
G01*
X1912873Y-436626D01*
X1947163Y-327660D02*
G01*
X1947163Y-436626D01*
X1947163Y-327660D02*
G01*
X2014728Y-327660D01*
X1947163Y-379476D02*
G01*
X1988820Y-379476D01*
X1947163Y-436626D02*
G01*
X2014728Y-436626D01*
D10*
X2772156Y-5875273D02*
G01*
X5741670Y-5875273D01*
X5748020Y-5868923D01*
X5748020Y-3916934D01*
X5741670Y-3910584D01*
X2772156Y-3910584D01*
X2759202Y-3923284D01*
X2759202Y-5875273D01*
X2765806Y-5881623D01*
X2765806Y-5875273D01*
X3098800Y-2438145D02*
G01*
X4698745Y-2438145D01*
X4698745Y-2438145D02*
G01*
X4698745Y-38100D01*
X4698745Y-38100D02*
G01*
X3098800Y-38100D01*
X3098800Y-2438145D01*
X3198875Y-738123D02*
G01*
X4598924Y-738123D01*
X4398772Y-638302D02*
G01*
X3398774Y-638302D01*
X3398774Y-138176D01*
X3498850Y-138176D01*
X3498850Y-438150D01*
X3598925Y-438150D01*
X3598925Y-138176D01*
X3698747Y-138176D01*
X3698747Y-438150D01*
X3798824Y-438150D01*
X3798824Y-138176D01*
X3898900Y-138176D01*
X3898900Y-438150D01*
X3998722Y-438150D01*
X3998722Y-138176D01*
X4598924Y-138176D01*
X3298697Y-938276D02*
G01*
X3298697Y-2238247D01*
X4498847Y-2238247D01*
X4498847Y-938276D01*
X3298697Y-938276D01*
X2186178Y-3227831D02*
G01*
X2646172Y-3227831D01*
X2184145Y-2588768D02*
G01*
X2184145Y-3228847D01*
X2646172Y-2585720D02*
G01*
X2646172Y-3225800D01*
X2186178Y-2588005D02*
G01*
X2324100Y-2588005D01*
X2506979Y-2584957D02*
G01*
X2645156Y-2584957D01*
X6154165Y-2766060D02*
G01*
X5694172Y-2766060D01*
X6155943Y-3405123D02*
G01*
X6155943Y-2765044D01*
X5694172Y-3408171D02*
G01*
X5694172Y-2768092D01*
X6154165Y-3405886D02*
G01*
X6015990Y-3405886D01*
X5833109Y-3408934D02*
G01*
X5694934Y-3408934D01*
D31*
X1562100Y-3175000D02*
G01*
X1562100Y-2667000D01*
X1790700Y-2667000D01*
X1790700Y-3175000D01*
X1562100Y-3175000D01*
X1562100Y-2730500D02*
G01*
X1790700Y-2730500D01*
X6914388Y-2227071D02*
G01*
X6914388Y-2735071D01*
X6685788Y-2735071D01*
X6685788Y-2227071D01*
X6914388Y-2227071D01*
X6914388Y-2671571D02*
G01*
X6685788Y-2671571D01*
X5143500Y-1981200D02*
G01*
X5143500Y-2489200D01*
X4914900Y-2489200D01*
X4914900Y-1981200D01*
X5143500Y-1981200D01*
X5143500Y-2425700D02*
G01*
X4914900Y-2425700D01*
D10*
X5837427Y-2212339D02*
G01*
X5837427Y-1816354D01*
X2362454Y-3987545D02*
G01*
X2362454Y-4383531D01*
X936497Y-4003802D02*
G01*
X1088897Y-4003802D01*
X1012697Y-3927602D02*
G01*
X1012697Y-4080002D01*
X6952488Y-839723D02*
G01*
X6952488Y-1906523D01*
X6647688Y-1906523D01*
X6647688Y-839723D01*
X6952488Y-839723D01*
X6952488Y-1119123D02*
G01*
X6647688Y-1119123D01*
D32*
X5151627Y-1522221D02*
G01*
X5019547Y-1522221D01*
X5019547Y-1729231D01*
X5151627Y-1729231D01*
X5264658Y-1522221D02*
G01*
X5396738Y-1522221D01*
X5396738Y-1729231D01*
X5264658Y-1729231D01*
X2494025Y-1119631D02*
G01*
X2625852Y-1119631D01*
X2625852Y-912621D01*
X2494025Y-912621D01*
X2380742Y-1119631D02*
G01*
X2248662Y-1119631D01*
X2248662Y-912621D01*
X2380742Y-912621D01*
D33*
X508000Y-262889D02*
G01*
X508000Y-753110D01*
X262889Y-508000D02*
G01*
X753110Y-508000D01*
X500126Y-5354828D02*
G01*
X500126Y-5845047D01*
X255015Y-5599937D02*
G01*
X745236Y-5599937D01*
X7366000Y-5342889D02*
G01*
X7366000Y-5833110D01*
X7120890Y-5588000D02*
G01*
X7611109Y-5588000D01*
X7366000Y-262889D02*
G01*
X7366000Y-753110D01*
X7120890Y-508000D02*
G01*
X7611109Y-508000D01*
D34*
X1419097Y-5727192D02*
G01*
X1419097Y-5473192D01*
X1927097Y-5473192D01*
X1927097Y-5727192D01*
X1736597Y-5727192D01*
D35*
X1419097Y-5727192D02*
G01*
X1736597Y-5727192D01*
D34*
X762000Y-2819400D02*
G01*
X1013460Y-2819400D01*
X1013460Y-3327400D01*
X762000Y-3327400D01*
X762000Y-2819400D01*
X6927088Y-4135120D02*
G01*
X6673088Y-4135120D01*
X6673088Y-3119120D01*
X6927088Y-3119120D01*
X6927088Y-3309620D01*
D35*
X6927088Y-4135120D02*
G01*
X6927088Y-3309620D01*
D10*
X1295400Y-1295400D02*
G01*
X533400Y-1295400D01*
X533400Y-1295400D01*
X1295400Y-1295400D02*
G01*
X1295400Y-2311400D01*
X533400Y-1295400D02*
G01*
X533400Y-2311400D01*
X1295400Y-2311400D02*
G01*
X533400Y-2311400D01*
D32*
X2574290Y-2200147D02*
G01*
X2574290Y-2331973D01*
X2781300Y-2331973D01*
X2781300Y-2200147D01*
X2574290Y-2086863D02*
G01*
X2574290Y-1954784D01*
X2781300Y-1954784D01*
X2781300Y-2086863D01*
D34*
X6134100Y-279400D02*
G01*
X5943600Y-279400D01*
X5943600Y-533400D01*
X6705600Y-533400D01*
X6705600Y-279400D01*
D35*
X6705600Y-279400D02*
G01*
X6134100Y-279400D01*
D34*
X6927088Y-4709413D02*
G01*
X6927088Y-4518913D01*
X6673088Y-4518913D01*
X6673088Y-5280913D01*
X6927088Y-5280913D01*
D35*
X6927088Y-5280913D02*
G01*
X6927088Y-4709413D01*
D34*
X5588000Y-254000D02*
G01*
X5588000Y-508000D01*
X5080000Y-508000D01*
X5080000Y-254000D01*
X5270500Y-254000D01*
D35*
X5588000Y-254000D02*
G01*
X5270500Y-254000D01*
D34*
X1460500Y-533400D02*
G01*
X1270000Y-533400D01*
X1270000Y-787400D01*
X2032000Y-787400D01*
X2032000Y-533400D01*
D35*
X2032000Y-533400D02*
G01*
X1460500Y-533400D01*
D10*
G75*
G01*
X2506218Y-2587244D02*
G02*
X2326132Y-2590038I-90043J-1397D01*
G75*
G01*
X5833770Y-3406750D02*
G02*
X6013856Y-3403956I90043J1397D01*
G75*
G01*
X5837174Y-2212416D02*
G03*
X5837174Y-1816176I149840J198120D01*
G75*
G01*
X2362810Y-3987571D02*
G03*
X2362810Y-4383811I-149840J-198120D01*
G75*
G01*
X911098Y-4003792D02*
G03*
X1520698Y-4003792I304800J-380988D01*
G75*
G01*
X911098Y-4003792D02*
G02*
X1520698Y-4003792I304800J10413D01*
G75*
G01*
X533400Y-1392936D02*
G02*
X533400Y-1723136I-140693J-165100D01*
G75*
G01*
X533400Y-1900936D02*
G02*
X533400Y-2231136I-133536J-165100D01*
G75*
G01
X1815897Y-4384802D02*
G03X1815897Y-4384802I-599999J0D01*
G75*
G01
X1342898Y-4384802D02*
G03X1342898Y-4384802I-127000J0D01*
D33*
G75*
G01
X714502Y-508000D02*
G03X714502Y-508000I-206502J0D01*
G75*
G01
X706501Y-5599989D02*
G03X706501Y-5599989I-206502J0D01*
G75*
G01
X7572502Y-5588000D02*
G03X7572502Y-5588000I-206502J0D01*
G75*
G01
X7572502Y-508000D02*
G03X7572502Y-508000I-206502J0D01*
M02*
