G04 Layer: TopPasteMaskLayer*
G04 EasyEDA v6.4.19.4, 2021-06-14T19:23:21+03:00*
G04 c287602e535a46618d334795f056a235,b3268d441ec746f5bebdd9f8aa6dfed9,10*
G04 Gerber Generator version 0.2*
G04 Scale: 100 percent, Rotated: No, Reflected: No *
G04 Dimensions in millimeters *
G04 leading zeros omitted , absolute positions ,4 integer and 5 decimal *
%FSLAX45Y45*%
%MOMM*%

%ADD10C,0.0001*%

%LPD*%
G36*
X2998724Y-788162D02*
G01*
X3198875Y-788162D01*
X3198875Y-888237D01*
X2998724Y-888237D01*
G37*
G36*
X2998724Y-988313D02*
G01*
X3198875Y-988313D01*
X3198875Y-1088136D01*
X2998724Y-1088136D01*
G37*
G36*
X2998724Y-1188212D02*
G01*
X3198875Y-1188212D01*
X3198875Y-1288034D01*
X2998724Y-1288034D01*
G37*
G36*
X2998724Y-1388110D02*
G01*
X3198875Y-1388110D01*
X3198875Y-1488186D01*
X2998724Y-1488186D01*
G37*
G36*
X2998724Y-1588262D02*
G01*
X3198875Y-1588262D01*
X3198875Y-1688337D01*
X2998724Y-1688337D01*
G37*
G36*
X2998724Y-1788160D02*
G01*
X3198875Y-1788160D01*
X3198875Y-1888236D01*
X2998724Y-1888236D01*
G37*
G36*
X2998724Y-1988057D02*
G01*
X3198875Y-1988057D01*
X3198875Y-2088134D01*
X2998724Y-2088134D01*
G37*
G36*
X2998977Y-2188210D02*
G01*
X3198875Y-2188210D01*
X3198875Y-2288286D01*
X2998977Y-2288286D01*
G37*
G36*
X3348990Y-2538221D02*
G01*
X3348990Y-2338323D01*
X3449065Y-2338323D01*
X3449065Y-2538221D01*
G37*
G36*
X3548888Y-2538221D02*
G01*
X3548888Y-2338070D01*
X3648709Y-2338070D01*
X3648709Y-2538221D01*
G37*
G36*
X3748531Y-2538221D02*
G01*
X3748531Y-2338323D01*
X3848608Y-2338323D01*
X3848608Y-2538221D01*
G37*
G36*
X3948684Y-2538221D02*
G01*
X3948684Y-2338323D01*
X4048759Y-2338323D01*
X4048759Y-2538221D01*
G37*
G36*
X4148581Y-2538221D02*
G01*
X4148581Y-2338323D01*
X4248658Y-2338323D01*
X4248658Y-2538221D01*
G37*
G36*
X4348734Y-2538221D02*
G01*
X4348734Y-2338323D01*
X4448556Y-2338323D01*
X4448556Y-2538221D01*
G37*
G36*
X4798822Y-2288794D02*
G01*
X4598924Y-2288794D01*
X4598924Y-2188718D01*
X4798822Y-2188718D01*
G37*
G36*
X4799075Y-2088387D02*
G01*
X4598924Y-2088387D01*
X4598924Y-1988312D01*
X4799075Y-1988312D01*
G37*
G36*
X4799075Y-1888489D02*
G01*
X4599177Y-1888489D01*
X4599177Y-1788668D01*
X4799075Y-1788668D01*
G37*
G36*
X4799075Y-1688592D02*
G01*
X4598924Y-1688592D01*
X4598924Y-1588515D01*
X4799075Y-1588515D01*
G37*
G36*
X4799075Y-1488439D02*
G01*
X4598924Y-1488439D01*
X4598924Y-1388363D01*
X4799075Y-1388363D01*
G37*
G36*
X4799075Y-1288542D02*
G01*
X4598924Y-1288542D01*
X4598924Y-1188465D01*
X4799075Y-1188465D01*
G37*
G36*
X4799075Y-1088389D02*
G01*
X4598924Y-1088389D01*
X4598924Y-988568D01*
X4799075Y-988568D01*
G37*
G36*
X4799075Y-888492D02*
G01*
X4598924Y-888492D01*
X4598924Y-788415D01*
X4799075Y-788415D01*
G37*
G36*
X5366511Y-1699005D02*
G01*
X5250688Y-1699005D01*
X5250688Y-1552194D01*
X5366511Y-1552194D01*
G37*
G36*
X5163311Y-1699005D02*
G01*
X5047488Y-1699005D01*
X5047488Y-1552194D01*
X5163311Y-1552194D01*
G37*
G36*
X2278887Y-942594D02*
G01*
X2394712Y-942594D01*
X2394712Y-1089405D01*
X2278887Y-1089405D01*
G37*
G36*
X2482088Y-942594D02*
G01*
X2597911Y-942594D01*
X2597911Y-1089405D01*
X2482088Y-1089405D01*
G37*
G36*
X2751074Y-1985010D02*
G01*
X2751074Y-2100834D01*
X2604261Y-2100834D01*
X2604261Y-1985010D01*
G37*
G36*
X2751074Y-2188210D02*
G01*
X2751074Y-2304034D01*
X2604261Y-2304034D01*
X2604261Y-2188210D01*
G37*
M02*
