G04 Layer: BottomSilkLayer*
G04 EasyEDA v6.4.19.4, 2021-06-14T19:23:21+03:00*
G04 c287602e535a46618d334795f056a235,b3268d441ec746f5bebdd9f8aa6dfed9,10*
G04 Gerber Generator version 0.2*
G04 Scale: 100 percent, Rotated: No, Reflected: No *
G04 Dimensions in millimeters *
G04 leading zeros omitted , absolute positions ,4 integer and 5 decimal *
%FSLAX45Y45*%
%MOMM*%

%ADD10C,0.2540*%
%ADD32C,0.1999*%
%ADD34C,0.2032*%
%ADD36C,0.1778*%

%LPD*%
D36*
X3862783Y-812779D02*
G01*
X3862783Y-921745D01*
X3862783Y-812779D02*
G01*
X3816047Y-812779D01*
X3800553Y-817859D01*
X3795219Y-822939D01*
X3790139Y-833353D01*
X3790139Y-843767D01*
X3795219Y-854181D01*
X3800553Y-859515D01*
X3816047Y-864595D01*
X3862783Y-864595D01*
X3826461Y-864595D02*
G01*
X3790139Y-921745D01*
X3750515Y-838687D02*
G01*
X3750515Y-833353D01*
X3745435Y-822939D01*
X3740101Y-817859D01*
X3729687Y-812779D01*
X3709113Y-812779D01*
X3698699Y-817859D01*
X3693365Y-822939D01*
X3688285Y-833353D01*
X3688285Y-843767D01*
X3693365Y-854181D01*
X3703779Y-869929D01*
X3755849Y-921745D01*
X3682951Y-921745D01*
X3841551Y-1193779D02*
G01*
X3841551Y-1302745D01*
X3841551Y-1193779D02*
G01*
X3794815Y-1193779D01*
X3779321Y-1198859D01*
X3773987Y-1203939D01*
X3768907Y-1214353D01*
X3768907Y-1224767D01*
X3773987Y-1235181D01*
X3779321Y-1240515D01*
X3794815Y-1245595D01*
X3841551Y-1245595D01*
X3805229Y-1245595D02*
G01*
X3768907Y-1302745D01*
X3734617Y-1214353D02*
G01*
X3724203Y-1209273D01*
X3708455Y-1193779D01*
X3708455Y-1302745D01*
X4096545Y-1523979D02*
G01*
X4096545Y-1632945D01*
X4096545Y-1523979D02*
G01*
X4049809Y-1523979D01*
X4034315Y-1529059D01*
X4028981Y-1534139D01*
X4023901Y-1544553D01*
X4023901Y-1554967D01*
X4028981Y-1565381D01*
X4034315Y-1570715D01*
X4049809Y-1575795D01*
X4096545Y-1575795D01*
X4060223Y-1575795D02*
G01*
X4023901Y-1632945D01*
X3937541Y-1523979D02*
G01*
X3989611Y-1596623D01*
X3911633Y-1596623D01*
X3937541Y-1523979D02*
G01*
X3937541Y-1632945D01*
X4091383Y-812779D02*
G01*
X4091383Y-921745D01*
X4091383Y-812779D02*
G01*
X4044647Y-812779D01*
X4029153Y-817859D01*
X4023819Y-822939D01*
X4018739Y-833353D01*
X4018739Y-843767D01*
X4023819Y-854181D01*
X4029153Y-859515D01*
X4044647Y-864595D01*
X4091383Y-864595D01*
X4055061Y-864595D02*
G01*
X4018739Y-921745D01*
X3921965Y-812779D02*
G01*
X3974035Y-812779D01*
X3979115Y-859515D01*
X3974035Y-854181D01*
X3958287Y-849101D01*
X3942793Y-849101D01*
X3927299Y-854181D01*
X3916885Y-864595D01*
X3911551Y-880089D01*
X3911551Y-890503D01*
X3916885Y-906251D01*
X3927299Y-916665D01*
X3942793Y-921745D01*
X3958287Y-921745D01*
X3974035Y-916665D01*
X3979115Y-911331D01*
X3984449Y-900917D01*
X4086125Y-1727179D02*
G01*
X4086125Y-1836145D01*
X4086125Y-1727179D02*
G01*
X4039389Y-1727179D01*
X4023895Y-1732259D01*
X4018561Y-1737339D01*
X4013481Y-1747753D01*
X4013481Y-1758167D01*
X4018561Y-1768581D01*
X4023895Y-1773915D01*
X4039389Y-1778995D01*
X4086125Y-1778995D01*
X4049803Y-1778995D02*
G01*
X4013481Y-1836145D01*
X3916707Y-1742673D02*
G01*
X3922041Y-1732259D01*
X3937535Y-1727179D01*
X3947949Y-1727179D01*
X3963443Y-1732259D01*
X3973857Y-1747753D01*
X3979191Y-1773915D01*
X3979191Y-1799823D01*
X3973857Y-1820651D01*
X3963443Y-1831065D01*
X3947949Y-1836145D01*
X3942615Y-1836145D01*
X3927121Y-1831065D01*
X3916707Y-1820651D01*
X3911627Y-1804903D01*
X3911627Y-1799823D01*
X3916707Y-1784329D01*
X3927121Y-1773915D01*
X3942615Y-1768581D01*
X3947949Y-1768581D01*
X3963443Y-1773915D01*
X3973857Y-1784329D01*
X3979191Y-1799823D01*
X4065983Y-990579D02*
G01*
X4065983Y-1099545D01*
X4065983Y-990579D02*
G01*
X4019247Y-990579D01*
X4003753Y-995659D01*
X3998419Y-1000739D01*
X3993339Y-1011153D01*
X3993339Y-1021567D01*
X3998419Y-1031981D01*
X4003753Y-1037315D01*
X4019247Y-1042395D01*
X4065983Y-1042395D01*
X4029661Y-1042395D02*
G01*
X3993339Y-1099545D01*
X3886151Y-990579D02*
G01*
X3938221Y-1099545D01*
X3959049Y-990579D02*
G01*
X3886151Y-990579D01*
X2741198Y-978860D02*
G01*
X2730784Y-973526D01*
X2720370Y-963112D01*
X2715290Y-952952D01*
X2715290Y-932124D01*
X2720370Y-921710D01*
X2730784Y-911296D01*
X2741198Y-905962D01*
X2756692Y-900882D01*
X2782600Y-900882D01*
X2798348Y-905962D01*
X2808762Y-911296D01*
X2819176Y-921710D01*
X2824256Y-932124D01*
X2824256Y-952952D01*
X2819176Y-963112D01*
X2808762Y-973526D01*
X2798348Y-978860D01*
X2741198Y-1018230D02*
G01*
X2735864Y-1018230D01*
X2725450Y-1023564D01*
X2720370Y-1028644D01*
X2715290Y-1039058D01*
X2715290Y-1059886D01*
X2720370Y-1070300D01*
X2725450Y-1075380D01*
X2735864Y-1080714D01*
X2746278Y-1080714D01*
X2756692Y-1075380D01*
X2772440Y-1064966D01*
X2824256Y-1013150D01*
X2824256Y-1085794D01*
X3503376Y-2965015D02*
G01*
X3492962Y-2959681D01*
X3482548Y-2949267D01*
X3477468Y-2939107D01*
X3477468Y-2918279D01*
X3482548Y-2907865D01*
X3492962Y-2897451D01*
X3503376Y-2892117D01*
X3518870Y-2887037D01*
X3544778Y-2887037D01*
X3560526Y-2892117D01*
X3570940Y-2897451D01*
X3581354Y-2907865D01*
X3586434Y-2918279D01*
X3586434Y-2939107D01*
X3581354Y-2949267D01*
X3570940Y-2959681D01*
X3560526Y-2965015D01*
X3498042Y-2999305D02*
G01*
X3492962Y-3009719D01*
X3477468Y-3025213D01*
X3586434Y-3025213D01*
X4669027Y-2191765D02*
G01*
X4679441Y-2197100D01*
X4689856Y-2207513D01*
X4694936Y-2217673D01*
X4694936Y-2238502D01*
X4689856Y-2248915D01*
X4679441Y-2259329D01*
X4669027Y-2264663D01*
X4653534Y-2269744D01*
X4627625Y-2269744D01*
X4611877Y-2264663D01*
X4601463Y-2259329D01*
X4591050Y-2248915D01*
X4585970Y-2238502D01*
X4585970Y-2217673D01*
X4591050Y-2207513D01*
X4601463Y-2197100D01*
X4611877Y-2191765D01*
X4694936Y-2147062D02*
G01*
X4694936Y-2089912D01*
X4653534Y-2121154D01*
X4653534Y-2105660D01*
X4648200Y-2095245D01*
X4643120Y-2089912D01*
X4627625Y-2084831D01*
X4617211Y-2084831D01*
X4601463Y-2089912D01*
X4591050Y-2100326D01*
X4585970Y-2116073D01*
X4585970Y-2131568D01*
X4591050Y-2147062D01*
X4596384Y-2152395D01*
X4606797Y-2157476D01*
X5630313Y-705578D02*
G01*
X5630313Y-814544D01*
X5630313Y-705578D02*
G01*
X5583577Y-705578D01*
X5568083Y-710658D01*
X5562749Y-715738D01*
X5557669Y-726152D01*
X5557669Y-736566D01*
X5562749Y-746980D01*
X5568083Y-752314D01*
X5583577Y-757394D01*
X5630313Y-757394D01*
X5593991Y-757394D02*
G01*
X5557669Y-814544D01*
X5455815Y-741900D02*
G01*
X5460895Y-757394D01*
X5471309Y-767808D01*
X5486803Y-772888D01*
X5492137Y-772888D01*
X5507631Y-767808D01*
X5518045Y-757394D01*
X5523379Y-741900D01*
X5523379Y-736566D01*
X5518045Y-721072D01*
X5507631Y-710658D01*
X5492137Y-705578D01*
X5486803Y-705578D01*
X5471309Y-710658D01*
X5460895Y-721072D01*
X5455815Y-741900D01*
X5455815Y-767808D01*
X5460895Y-793716D01*
X5471309Y-809464D01*
X5486803Y-814544D01*
X5497217Y-814544D01*
X5512965Y-809464D01*
X5518045Y-799050D01*
X5683199Y-932378D02*
G01*
X5683199Y-1041344D01*
X5683199Y-932378D02*
G01*
X5636463Y-932378D01*
X5620969Y-937458D01*
X5615635Y-942538D01*
X5610555Y-952952D01*
X5610555Y-963366D01*
X5615635Y-973780D01*
X5620969Y-979114D01*
X5636463Y-984194D01*
X5683199Y-984194D01*
X5646877Y-984194D02*
G01*
X5610555Y-1041344D01*
X5576265Y-952952D02*
G01*
X5565851Y-947872D01*
X5550103Y-932378D01*
X5550103Y-1041344D01*
X5484825Y-932378D02*
G01*
X5500319Y-937458D01*
X5510733Y-952952D01*
X5515813Y-979114D01*
X5515813Y-994608D01*
X5510733Y-1020516D01*
X5500319Y-1036264D01*
X5484825Y-1041344D01*
X5474411Y-1041344D01*
X5458663Y-1036264D01*
X5448249Y-1020516D01*
X5443169Y-994608D01*
X5443169Y-979114D01*
X5448249Y-952952D01*
X5458663Y-937458D01*
X5474411Y-932378D01*
X5484825Y-932378D01*
X5655368Y-1196977D02*
G01*
X5655368Y-1305943D01*
X5655368Y-1196977D02*
G01*
X5608632Y-1196977D01*
X5593138Y-1202057D01*
X5587804Y-1207137D01*
X5582724Y-1217551D01*
X5582724Y-1227965D01*
X5587804Y-1238379D01*
X5593138Y-1243713D01*
X5608632Y-1248793D01*
X5655368Y-1248793D01*
X5619046Y-1248793D02*
G01*
X5582724Y-1305943D01*
X5548434Y-1217551D02*
G01*
X5538020Y-1212471D01*
X5522272Y-1196977D01*
X5522272Y-1305943D01*
X5487982Y-1217551D02*
G01*
X5477568Y-1212471D01*
X5462074Y-1196977D01*
X5462074Y-1305943D01*
X5683199Y-1423776D02*
G01*
X5683199Y-1532742D01*
X5683199Y-1423776D02*
G01*
X5636463Y-1423776D01*
X5620969Y-1428856D01*
X5615635Y-1433936D01*
X5610555Y-1444350D01*
X5610555Y-1454764D01*
X5615635Y-1465178D01*
X5620969Y-1470512D01*
X5636463Y-1475592D01*
X5683199Y-1475592D01*
X5646877Y-1475592D02*
G01*
X5610555Y-1532742D01*
X5576265Y-1444350D02*
G01*
X5565851Y-1439270D01*
X5550103Y-1423776D01*
X5550103Y-1532742D01*
X5510733Y-1449684D02*
G01*
X5510733Y-1444350D01*
X5505399Y-1433936D01*
X5500319Y-1428856D01*
X5489905Y-1423776D01*
X5469077Y-1423776D01*
X5458663Y-1428856D01*
X5453583Y-1433936D01*
X5448249Y-1444350D01*
X5448249Y-1454764D01*
X5453583Y-1465178D01*
X5463997Y-1480926D01*
X5515813Y-1532742D01*
X5443169Y-1532742D01*
X6623786Y-3883761D02*
G01*
X6623786Y-3992727D01*
X6623786Y-3883761D02*
G01*
X6577050Y-3883761D01*
X6561556Y-3888841D01*
X6556222Y-3893921D01*
X6551142Y-3904335D01*
X6551142Y-3914749D01*
X6556222Y-3925163D01*
X6561556Y-3930497D01*
X6577050Y-3935577D01*
X6623786Y-3935577D01*
X6587464Y-3935577D02*
G01*
X6551142Y-3992727D01*
X6516852Y-3904335D02*
G01*
X6506438Y-3899255D01*
X6490690Y-3883761D01*
X6490690Y-3992727D01*
X6404584Y-3883761D02*
G01*
X6456400Y-3956405D01*
X6378676Y-3956405D01*
X6404584Y-3883761D02*
G01*
X6404584Y-3992727D01*
X1317307Y-2746773D02*
G01*
X1317307Y-2855739D01*
X1317307Y-2746773D02*
G01*
X1270571Y-2746773D01*
X1255077Y-2751853D01*
X1249743Y-2756933D01*
X1244663Y-2767347D01*
X1244663Y-2777761D01*
X1249743Y-2788175D01*
X1255077Y-2793509D01*
X1270571Y-2798589D01*
X1317307Y-2798589D01*
X1280985Y-2798589D02*
G01*
X1244663Y-2855739D01*
X1210373Y-2767347D02*
G01*
X1199959Y-2762267D01*
X1184211Y-2746773D01*
X1184211Y-2855739D01*
X1139507Y-2746773D02*
G01*
X1082357Y-2746773D01*
X1113599Y-2788175D01*
X1098105Y-2788175D01*
X1087691Y-2793509D01*
X1082357Y-2798589D01*
X1077277Y-2814083D01*
X1077277Y-2824497D01*
X1082357Y-2840245D01*
X1092771Y-2850659D01*
X1108519Y-2855739D01*
X1124013Y-2855739D01*
X1139507Y-2850659D01*
X1144841Y-2845325D01*
X1149921Y-2834911D01*
X5025364Y-3221380D02*
G01*
X5014950Y-3216046D01*
X5004536Y-3205632D01*
X4999456Y-3195472D01*
X4999456Y-3174644D01*
X5004536Y-3164230D01*
X5014950Y-3153816D01*
X5025364Y-3148482D01*
X5040858Y-3143402D01*
X5066766Y-3143402D01*
X5082514Y-3148482D01*
X5092928Y-3153816D01*
X5103342Y-3164230D01*
X5108422Y-3174644D01*
X5108422Y-3195472D01*
X5103342Y-3205632D01*
X5092928Y-3216046D01*
X5082514Y-3221380D01*
X4999456Y-3307486D02*
G01*
X5072100Y-3255670D01*
X5072100Y-3333648D01*
X4999456Y-3307486D02*
G01*
X5108422Y-3307486D01*
X5344218Y-2484079D02*
G01*
X5235252Y-2484079D01*
X5344218Y-2484079D02*
G01*
X5344218Y-2437343D01*
X5339138Y-2421849D01*
X5334058Y-2416515D01*
X5323644Y-2411435D01*
X5313230Y-2411435D01*
X5302816Y-2416515D01*
X5297482Y-2421849D01*
X5292402Y-2437343D01*
X5292402Y-2484079D01*
X5292402Y-2447757D02*
G01*
X5235252Y-2411435D01*
X5323644Y-2377145D02*
G01*
X5328724Y-2366731D01*
X5344218Y-2350983D01*
X5235252Y-2350983D01*
X5328724Y-2254463D02*
G01*
X5339138Y-2259543D01*
X5344218Y-2275291D01*
X5344218Y-2285705D01*
X5339138Y-2301199D01*
X5323644Y-2311613D01*
X5297482Y-2316693D01*
X5271574Y-2316693D01*
X5250746Y-2311613D01*
X5240332Y-2301199D01*
X5235252Y-2285705D01*
X5235252Y-2280371D01*
X5240332Y-2264877D01*
X5250746Y-2254463D01*
X5266494Y-2249129D01*
X5271574Y-2249129D01*
X5287068Y-2254463D01*
X5297482Y-2264877D01*
X5302816Y-2280371D01*
X5302816Y-2285705D01*
X5297482Y-2301199D01*
X5287068Y-2311613D01*
X5271574Y-2316693D01*
X5569798Y-1814375D02*
G01*
X5569798Y-1923341D01*
X5569798Y-1814375D02*
G01*
X5523062Y-1814375D01*
X5507568Y-1819455D01*
X5502234Y-1824535D01*
X5497154Y-1834949D01*
X5497154Y-1845363D01*
X5502234Y-1855777D01*
X5507568Y-1861111D01*
X5523062Y-1866191D01*
X5569798Y-1866191D01*
X5533476Y-1866191D02*
G01*
X5497154Y-1923341D01*
X5462864Y-1834949D02*
G01*
X5452450Y-1829869D01*
X5436702Y-1814375D01*
X5436702Y-1923341D01*
X5340182Y-1814375D02*
G01*
X5391998Y-1814375D01*
X5397332Y-1861111D01*
X5391998Y-1855777D01*
X5376504Y-1850697D01*
X5361010Y-1850697D01*
X5345262Y-1855777D01*
X5334848Y-1866191D01*
X5329768Y-1881685D01*
X5329768Y-1892099D01*
X5334848Y-1907847D01*
X5345262Y-1918261D01*
X5361010Y-1923341D01*
X5376504Y-1923341D01*
X5391998Y-1918261D01*
X5397332Y-1912927D01*
X5402412Y-1902513D01*
X2223770Y-609600D02*
G01*
X2332736Y-609600D01*
X2223770Y-609600D02*
G01*
X2223770Y-656336D01*
X2228850Y-671829D01*
X2233929Y-677163D01*
X2244344Y-682244D01*
X2254757Y-682244D01*
X2265171Y-677163D01*
X2270505Y-671829D01*
X2275586Y-656336D01*
X2275586Y-609600D01*
X2275586Y-645921D02*
G01*
X2332736Y-682244D01*
X2244344Y-716534D02*
G01*
X2239263Y-726947D01*
X2223770Y-742695D01*
X2332736Y-742695D01*
X2223770Y-802894D02*
G01*
X2228850Y-787400D01*
X2239263Y-782065D01*
X2249678Y-782065D01*
X2260092Y-787400D01*
X2265171Y-797560D01*
X2270505Y-818387D01*
X2275586Y-834136D01*
X2286000Y-844550D01*
X2296413Y-849629D01*
X2311907Y-849629D01*
X2322321Y-844550D01*
X2327655Y-839215D01*
X2332736Y-823721D01*
X2332736Y-802894D01*
X2327655Y-787400D01*
X2322321Y-782065D01*
X2311907Y-776986D01*
X2296413Y-776986D01*
X2286000Y-782065D01*
X2275586Y-792479D01*
X2270505Y-807973D01*
X2265171Y-828802D01*
X2260092Y-839215D01*
X2249678Y-844550D01*
X2239263Y-844550D01*
X2228850Y-839215D01*
X2223770Y-823721D01*
X2223770Y-802894D01*
X2228595Y-2040966D02*
G01*
X2228595Y-2118690D01*
X2223515Y-2134438D01*
X2213102Y-2144852D01*
X2197354Y-2149932D01*
X2186939Y-2149932D01*
X2171445Y-2144852D01*
X2161031Y-2134438D01*
X2155952Y-2118690D01*
X2155952Y-2040966D01*
X2116328Y-2066874D02*
G01*
X2116328Y-2061540D01*
X2111247Y-2051126D01*
X2105913Y-2046046D01*
X2095500Y-2040966D01*
X2074926Y-2040966D01*
X2064512Y-2046046D01*
X2059178Y-2051126D01*
X2054097Y-2061540D01*
X2054097Y-2071954D01*
X2059178Y-2082368D01*
X2069592Y-2098116D01*
X2121662Y-2149932D01*
X2048763Y-2149932D01*
X4300057Y-3672913D02*
G01*
X4300057Y-3750637D01*
X4294977Y-3766385D01*
X4284563Y-3776799D01*
X4268815Y-3781879D01*
X4258401Y-3781879D01*
X4242907Y-3776799D01*
X4232493Y-3766385D01*
X4227413Y-3750637D01*
X4227413Y-3672913D01*
X4130639Y-3672913D02*
G01*
X4182709Y-3672913D01*
X4187789Y-3719649D01*
X4182709Y-3714315D01*
X4166961Y-3709235D01*
X4151467Y-3709235D01*
X4135973Y-3714315D01*
X4125559Y-3724729D01*
X4120225Y-3740223D01*
X4120225Y-3750637D01*
X4125559Y-3766385D01*
X4135973Y-3776799D01*
X4151467Y-3781879D01*
X4166961Y-3781879D01*
X4182709Y-3776799D01*
X4187789Y-3771465D01*
X4193123Y-3761051D01*
D34*
X3053588Y-5698236D02*
G01*
X3053588Y-5504179D01*
X3053588Y-5504179D02*
G01*
X3164586Y-5504179D01*
X3060191Y-5198871D02*
G01*
X3060191Y-5005070D01*
X3060191Y-5198871D02*
G01*
X3189477Y-5005070D01*
X3189477Y-5198871D02*
G01*
X3189477Y-5005070D01*
X5287510Y-5079974D02*
G01*
X5453880Y-5079974D01*
X5148242Y-4847224D02*
G01*
X5148242Y-4680854D01*
X5065184Y-4763912D02*
G01*
X5231554Y-4763912D01*
X5292514Y-4874910D02*
G01*
X5366428Y-4680854D01*
X5440342Y-4874910D02*
G01*
X5366428Y-4680854D01*
X5501302Y-4837826D02*
G01*
X5519590Y-4847224D01*
X5547276Y-4874910D01*
X5547276Y-4680854D01*
X5389793Y-4192160D02*
G01*
X5389793Y-4026044D01*
X5306481Y-4109102D02*
G01*
X5472851Y-4109102D01*
D32*
X3535425Y-734821D02*
G01*
X3667252Y-734821D01*
X3667252Y-941831D01*
X3535425Y-941831D01*
X3422141Y-734821D02*
G01*
X3290061Y-734821D01*
X3290061Y-941831D01*
X3422141Y-941831D01*
X3535425Y-1141221D02*
G01*
X3667252Y-1141221D01*
X3667252Y-1348231D01*
X3535425Y-1348231D01*
X3422141Y-1141221D02*
G01*
X3290061Y-1141221D01*
X3290061Y-1348231D01*
X3422141Y-1348231D01*
X4262627Y-1703831D02*
G01*
X4130547Y-1703831D01*
X4130547Y-1496821D01*
X4262627Y-1496821D01*
X4375658Y-1703831D02*
G01*
X4507738Y-1703831D01*
X4507738Y-1496821D01*
X4375658Y-1496821D01*
X4237227Y-941831D02*
G01*
X4105147Y-941831D01*
X4105147Y-734821D01*
X4237227Y-734821D01*
X4350258Y-941831D02*
G01*
X4482338Y-941831D01*
X4482338Y-734821D01*
X4350258Y-734821D01*
X4262627Y-1932431D02*
G01*
X4130547Y-1932431D01*
X4130547Y-1725421D01*
X4262627Y-1725421D01*
X4375658Y-1932431D02*
G01*
X4507738Y-1932431D01*
X4507738Y-1725421D01*
X4375658Y-1725421D01*
X4237227Y-1145031D02*
G01*
X4105147Y-1145031D01*
X4105147Y-938021D01*
X4237227Y-938021D01*
X4350258Y-1145031D02*
G01*
X4482338Y-1145031D01*
X4482338Y-938021D01*
X4350258Y-938021D01*
X2897631Y-690371D02*
G01*
X2897631Y-822452D01*
X2690622Y-822452D01*
X2690622Y-690371D01*
X2897631Y-577342D02*
G01*
X2897631Y-445262D01*
X2690622Y-445262D01*
X2690622Y-577342D01*
X3197859Y-2873247D02*
G01*
X3197859Y-2741168D01*
X3404870Y-2741168D01*
X3404870Y-2873247D01*
X3197859Y-2986278D02*
G01*
X3197859Y-3118357D01*
X3404870Y-3118357D01*
X3404870Y-2986278D01*
X4290822Y-2256028D02*
G01*
X4290822Y-2123947D01*
X4497831Y-2123947D01*
X4497831Y-2256028D01*
X4290822Y-2369057D02*
G01*
X4290822Y-2501137D01*
X4497831Y-2501137D01*
X4497831Y-2369057D01*
X5262625Y-658621D02*
G01*
X5394452Y-658621D01*
X5394452Y-865631D01*
X5262625Y-865631D01*
X5149341Y-658621D02*
G01*
X5017261Y-658621D01*
X5017261Y-865631D01*
X5149341Y-865631D01*
X5262625Y-912621D02*
G01*
X5394452Y-912621D01*
X5394452Y-1119631D01*
X5262625Y-1119631D01*
X5149341Y-912621D02*
G01*
X5017261Y-912621D01*
X5017261Y-1119631D01*
X5149341Y-1119631D01*
X5262625Y-1166621D02*
G01*
X5394452Y-1166621D01*
X5394452Y-1373631D01*
X5262625Y-1373631D01*
X5149341Y-1166621D02*
G01*
X5017261Y-1166621D01*
X5017261Y-1373631D01*
X5149341Y-1373631D01*
X5262625Y-1420621D02*
G01*
X5394452Y-1420621D01*
X5394452Y-1627631D01*
X5262625Y-1627631D01*
X5149341Y-1420621D02*
G01*
X5017261Y-1420621D01*
X5017261Y-1627631D01*
X5149341Y-1627631D01*
X6543040Y-4303521D02*
G01*
X6410959Y-4303521D01*
X6410959Y-4096512D01*
X6543040Y-4096512D01*
X6656070Y-4303521D02*
G01*
X6788150Y-4303521D01*
X6788150Y-4096512D01*
X6656070Y-4096512D01*
X1249426Y-2462021D02*
G01*
X1381252Y-2462021D01*
X1381252Y-2669031D01*
X1249426Y-2669031D01*
X1136142Y-2462021D02*
G01*
X1004062Y-2462021D01*
X1004062Y-2669031D01*
X1136142Y-2669031D01*
X5403850Y-3157473D02*
G01*
X5403850Y-3289300D01*
X5196840Y-3289300D01*
X5196840Y-3157473D01*
X5403850Y-3044189D02*
G01*
X5403850Y-2912110D01*
X5196840Y-2912110D01*
X5196840Y-3044189D01*
X4925822Y-2103628D02*
G01*
X4925822Y-1971547D01*
X5132831Y-1971547D01*
X5132831Y-2103628D01*
X4925822Y-2216657D02*
G01*
X4925822Y-2348737D01*
X5132831Y-2348737D01*
X5132831Y-2216657D01*
X5516625Y-1979421D02*
G01*
X5648452Y-1979421D01*
X5648452Y-2186431D01*
X5516625Y-2186431D01*
X5403341Y-1979421D02*
G01*
X5271261Y-1979421D01*
X5271261Y-2186431D01*
X5403341Y-2186431D01*
X2643631Y-690626D02*
G01*
X2643631Y-822452D01*
X2436621Y-822452D01*
X2436621Y-690626D01*
X2643631Y-577342D02*
G01*
X2643631Y-445262D01*
X2436621Y-445262D01*
X2436621Y-577342D01*
D10*
X2078736Y-1950720D02*
G01*
X2078736Y-1468120D01*
X2393695Y-1468120D01*
X2393695Y-1950720D01*
X2393695Y-1950720D02*
G01*
X2299715Y-1950720D01*
X2172715Y-1950720D02*
G01*
X2078736Y-1950720D01*
X2746502Y-5900928D02*
G01*
X5794502Y-5900928D01*
X5794502Y-3868928D01*
X2746502Y-3868928D01*
X2746502Y-5900928D01*
X104333548Y70297294D02*
G01*
X107381548Y70297294D01*
X107381548Y72329294D01*
X104333548Y72329294D01*
X104333548Y70297294D01*
X105287063Y70346824D02*
G01*
X108335063Y70346824D01*
X108335063Y72378824D01*
X105287063Y72378824D01*
X105287063Y70346824D01*
G75*
G01*
X2299716Y-1950720D02*
G03*
X2172716Y-1950720I-63500J0D01*
G75*
G01
X2039366Y-1973580D02*
G03X2039366Y-1973580I-19050J0D01*
M02*
